<svg width="24" height="71" viewBox="0 0 24 71" fill="none" xmlns="http://www.w3.org/2000/svg">
<path d="M10.5574 35.5C11.5742 36.5312 12.3935 37.8268 12.9568 39.2941C14.3964 42.955 14.3964 47.4295 14.3964 51.7708C14.3964 60.7605 14.6963 65.0833 21.5946 65.0833C22.231 65.0833 22.8413 65.395 23.2912 65.9498C23.7412 66.5046 23.994 67.2571 23.994 68.0417C23.994 68.8263 23.7412 69.5787 23.2912 70.1335C22.8413 70.6883 22.231 71 21.5946 71C16.3519 71 12.8008 68.7295 11.0372 64.2476C9.5976 60.5867 9.5976 56.1122 9.5976 51.7708C9.5976 42.7812 9.29768 38.4583 2.3994 38.4583C1.76304 38.4583 1.15274 38.1467 0.702768 37.5919C0.252793 37.0371 0 36.2846 0 35.5C0 34.7154 0.252793 33.9629 0.702768 33.4081C1.15274 32.8533 1.76304 32.5417 2.3994 32.5417C9.29768 32.5417 9.5976 28.2188 9.5976 19.2292C9.5976 14.8952 9.5976 10.4133 11.0372 6.7524C12.8068 2.27052 16.3579 0 21.6006 0C22.237 0 22.8473 0.311681 23.2972 0.866476C23.7472 1.42127 24 2.17373 24 2.95833C24 3.74293 23.7472 4.4954 23.2972 5.05019C22.8473 5.60499 22.237 5.91667 21.6006 5.91667C14.7023 5.91667 14.4024 10.2395 14.4024 19.2292C14.4024 23.5631 14.4024 28.045 12.9628 31.7059C12.3978 33.1739 11.5764 34.4696 10.5574 35.5Z" fill="black"/>
</svg>
