<svg width="24" height="71" viewBox="0 0 24 71" fill="none" xmlns="http://www.w3.org/2000/svg">
<path d="M13.4426 35.5C12.4258 36.5312 11.6065 37.8268 11.0432 39.2941C9.6036 42.955 9.6036 47.4295 9.6036 51.7708C9.6036 60.7605 9.30367 65.0833 2.4054 65.0833C1.76904 65.0833 1.15874 65.395 0.708769 65.9498C0.258793 66.5046 0.00599861 67.2571 0.00599861 68.0417C0.00599861 68.8263 0.258793 69.5787 0.708769 70.1335C1.15874 70.6883 1.76904 71 2.4054 71C7.64809 71 11.1992 68.7295 12.9628 64.2476C14.4024 60.5867 14.4024 56.1122 14.4024 51.7708C14.4024 42.7812 14.7023 38.4583 21.6006 38.4583C22.237 38.4583 22.8473 38.1467 23.2972 37.5919C23.7472 37.0371 24 36.2846 24 35.5C24 34.7154 23.7472 33.9629 23.2972 33.4081C22.8473 32.8533 22.237 32.5417 21.6006 32.5417C14.7023 32.5417 14.4024 28.2188 14.4024 19.2292C14.4024 14.8952 14.4024 10.4133 12.9628 6.7524C11.1932 2.27052 7.64209 0 2.3994 0C1.76304 0 1.15274 0.311681 0.70277 0.866476C0.252794 1.42127 0 2.17373 0 2.95833C0 3.74293 0.252794 4.4954 0.70277 5.05019C1.15274 5.60499 1.76304 5.91667 2.3994 5.91667C9.29768 5.91667 9.5976 10.2395 9.5976 19.2292C9.5976 23.5631 9.5976 28.045 11.0372 31.7059C11.6022 33.1739 12.4236 34.4696 13.4426 35.5Z" fill="black"/>
</svg>
